<svg viewBox="0 0 1024 1024" width="1024" height="1024" xmlns="http://www.w3.org/2000/svg">
  <style>
    :root {
      color-scheme: light dark;
    }
    path {
      fill: black;
    }
    @media (prefers-color-scheme: dark) {
      path {
        fill: white;
      }
    }
  </style>

  <!-- LOGOMARK -->
  <path fill-rule="evenodd" d="
    M 263,318
    Q 293,466 413,496
    Q 293,526 263,690
    Q 233,526 113,496
    Q 233,466 263,318
    Z

    M 263,413
    Q 283,464 319,484
    Q 283,495 263,535
    Q 243,495 207,484
    Q 243,464 263,413
    Z

    M 263,590
    Q 283,537 320,517
    Q 283,547 263,600
    Q 243,547 206,517
    Q 243,537 263,590
    Z" />

  <!-- N -->
  <path d="
    M 456,380
    L 496,380
    L 572,491
    L 572,380
    L 608,380
    L 608,548
    L 568,548
    L 492,438
    L 492,548
    L 456,548
    Z" />

  <!-- I -->
  <path d="
    M 642,380
    L 678,380
    L 678,548
    L 642,548
    Z" />

  <!-- X -->
  <path d="
    M 705,380
    L 745,380
    L 857,548
    L 817,548

    M 817,380
    L 857,380
    L 745,548
    L 705,548
    Z" />

  <!-- V -->
  <path d="
    M 456,586
    L 471,586
    L 488.5,632
    L 506,586
    L 521,586
    L 496,650
    L 481,650
    Z" />

  <!-- A -->
  <path fill="white" d="
    M 521,650
    L 546,586
    L 561,586
    L 586,650
    L 571,650
    L 553.5,604
    L 536,650
    Z" />
  <path fill="white" d="
    M 540,636
    L 570,636
    L 570,623
    L 540,623
    Z" />

  <!-- L -->
  <path fill="white" d="
    M 603,586
    L 616,586
    L 616,637
    L 647,637
    L 647,650
    L 603,650
    Z" />

  <!-- U -->
  <path fill="white" d="
    M 664,586
    L 677,586
    L 677,620
    Q 677,639 691.5,639
    T 706,620
    L 706,586
    L 719,586
    L 719,622
    Q 719,652 691.5,652
    T 664,622
    Z" />

  <!-- E -->
  <path fill="white" d="
    M 736,586
    L 783,586
    L 783,599
    L 750,599
    L 750,612
    L 780,612
    L 780,624
    L 750,624
    L 750,637
    L 784,637
    L 784,650
    L 737,650
    Z" />

  <!-- S -->
  <path fill="white" d="
    M 856,603
    Q 856,584 830.5,584
    T 805,603
    C 805,631 844,621 844,631
    Q 844,640 829.5,640
    T 815,630
    L 802,630
    Q 802,652 829.5,652
    T 857,630
    C 857,603 818,613 818,603
    Q 818,596 830.5,596
    T 843,603
    Z" />
</svg>
